<?xml version="1.0" encoding="UTF-8"?>
<svg id="Camada_1" data-name="Camada 1" xmlns="http://www.w3.org/2000/svg" viewBox="0 0 230 207.09">
  <defs>
    <style>
      .cls-1 {
        fill: #fecc6b;
      }
    </style>
  </defs>
  <path class="cls-1" d="M95.61,11.27c-24.43-6.47-51.14-1.2-66.44,20.63-11.25,16.05-17.89,34.42-19.9,54.18-5.01,49.29,26.38,95.68,74.4,108.63,24.37,6.57,50.23,3.83,73.01-6.03,2.64-1.14,4.83-1.4,6.43.59,1.19,1.48,2.03,5.15-.94,6.51-27.6,12.63-59.21,15.2-88.21,5.14C31.57,186.2,2.83,147.23.19,102.26c-1.6-27.25,6.87-54.08,22.41-75.98C45.66-6.23,88.39-5.36,120.83,11.48c7.17,3.72,14.06,4.73,21.97,3.19,38.3-7.42,74.66,16.52,83.1,54.55,3.8,17.11,2.94,34.35-2.17,51.2-.76,2.51-3.11,3.07-5.29,2.76s-3.73-2.75-2.93-5.54c4.08-14.29,5.09-28.58,2.55-43.2-6.22-35.95-40.45-58.77-75.88-50.78-16.33,3.68-27.3-7.28-46.57-12.39Z"/>
  <path class="cls-1" d="M145.63,117.32c4.67,12.82,4.16,25.76-3.25,36.66-11.4,16.78-36.84,14.68-52.63,6.41-20.1-10.54-25.92-34.62-13.92-54.35-11.87-4.59-21.37-11.46-27.71-21.98-8.62-18.54,1.33-40.78,21.05-47.16,20.81-6.74,43.68,1.66,55.1,20.34,17.35-11.69,37.91-11.3,53.8.93,10.11,7.78,17.23,19.12,17.85,31.99,1.35,14.25-6.96,25.96-20.52,29.59-9.73,2.61-19.12,1.55-29.78-2.43ZM117.56,77.54c2.32-8.68-.26-16.77-6.21-22.74-10.94-10.97-28.14-14.98-42.46-8.31-11.84,5.52-18.96,19.91-13.26,32.09,6.07,12.97,20.54,20.7,34.41,20.27,12.99-.4,24.11-8.54,27.52-21.3ZM182.37,105.96c11.48-11.34,3.12-33.84-14.39-43.98-13.3-7.7-29.48-5.52-41.21,4.59.78,7.81-.68,14.4-3.63,21.72,11.23,17.09,42.92,33.78,59.24,17.67ZM138.02,143.89c3.53-8.44,2.07-17.19-1.93-25.03-4.9-8.49-11.35-15.62-19.4-22.24-9.04,7.6-19.06,11.87-31.19,10.87-9.69,11.53-9.98,29.18,1.21,39.96s42.3,18.02,51.32-3.55Z"/>
  <path class="cls-1" d="M205.01,156.62c-3.68,4.77-31.64,40.39-36.09,28.95-1.07-2.75.31-4.9,2.6-6.58,10.82-7.95,19.27-18.11,27.21-28.78,1.57-2.12,4.95-2.11,6.5-.79,2.31,1.96,1.59,4.87-.22,7.21Z"/>
  <path class="cls-1" d="M213.58,143.66c-1.39,1.99-4.19,1.92-5.74,1.09-4.77-2.55.45-9.26,2.01-12.49,1.11-2.3,3.57-2.57,5.12-2.21,2.8.65,3.48,3.54,2.49,6.16s-2.17,4.99-3.89,7.46Z"/>
  <path class="cls-1" d="M120.7,106.62c11.81,6.06,20.66,24.44,13.54,25.88s-2.05-10.74-17.14-19.46c-1.93-1.12-2.43-3.39-1.77-5.06.59-1.51,3.4-2.37,5.37-1.36Z"/>
  <path class="cls-1" d="M96.51,61.64c-13.13-13.88-26.44-1.13-28.94-7.27-.49-1.21-.44-3.8,1.54-4.65,18.48-7.92,38.05,6.6,32.62,11.97-1.03,1.02-3.54,1.72-5.21-.05Z"/>
  <path class="cls-1" d="M176.76,83.67c-6.63,3.79-5.52-12.5-23.77-13.79-2.6-.18-3.82-1.96-3.65-3.98.63-7.47,21.46-2.03,28.86,12.77,1.04,2.07.06,4.14-1.45,5.01Z"/>
</svg>